<svg width="12" height="12" viewBox="0 0 12 12" fill="none" xmlns="http://www.w3.org/2000/svg">
<path d="M3.7695 11.2495C8.298 11.2495 10.7752 7.49729 10.7752 4.24904C10.7752 4.14404 10.7753 4.03754 10.7708 3.93254C11.253 3.58341 11.6693 3.15116 12 2.65604C11.5495 2.85468 11.0721 2.9856 10.5833 3.04454C11.0982 2.73677 11.4838 2.25252 11.6685 1.68179C11.1847 1.96839 10.6553 2.16957 10.1032 2.27654C9.73214 1.88131 9.24105 1.61948 8.70606 1.53161C8.17108 1.44374 7.62204 1.53473 7.144 1.7905C6.66597 2.04626 6.28561 2.45251 6.06184 2.94634C5.83807 3.44016 5.78338 3.99399 5.90625 4.52204C4.92731 4.47296 3.96961 4.21864 3.09528 3.7756C2.22095 3.33256 1.44951 2.71068 0.831 1.95029C0.517005 2.49261 0.42118 3.13409 0.562985 3.74449C0.704789 4.35489 1.07359 4.88844 1.5945 5.23679C1.20415 5.22353 0.822391 5.11871 0.48 4.93079V4.96454C0.480673 5.53265 0.67748 6.08311 1.03716 6.52286C1.39683 6.96262 1.89731 7.2647 2.454 7.37804C2.2427 7.43625 2.02442 7.46527 1.80525 7.46429C1.65074 7.46476 1.49654 7.45045 1.34475 7.42154C1.50209 7.91059 1.80845 8.33817 2.22094 8.6444C2.63342 8.95063 3.13135 9.12018 3.645 9.12929C2.77242 9.81464 1.69455 10.1863 0.585 10.1845C0.389491 10.1854 0.194117 10.1741 0 10.1508C1.12614 10.8687 2.43397 11.25 3.7695 11.2495Z" fill="white"/>
</svg>
